<?xml version="1.0" standalone="no"?>
<!DOCTYPE svg PUBLIC "-//W3C//DTD SVG 20010904//EN"
 "http://www.w3.org/TR/2001/REC-SVG-20010904/DTD/svg10.dtd">
<svg version="1.0" xmlns="http://www.w3.org/2000/svg"
 width="260.000000pt" height="260.000000pt" viewBox="0 0 260.000000 260.000000"
 preserveAspectRatio="xMidYMid meet">
<metadata>
Created by potrace 1.11, written by Peter Selinger 2001-2013
</metadata>
<g transform="translate(0.000000,260.000000) scale(0.100000,-0.100000)"
fill="#000000" stroke="none">
<path d="M288 2576 c-104 -37 -200 -126 -249 -230 l-29 -63 2 -994 3 -994 24
-48 c32 -66 118 -157 180 -190 l50 -28 25 44 c14 24 26 47 26 50 0 4 -14 14
-31 23 -46 23 -114 89 -148 142 -63 100 -61 68 -61 1030 0 850 1 875 21 934
46 137 144 230 288 274 63 19 667 20 636 1 -14 -8 -112 -13 -325 -17 l-305 -5
-60 -30 c-79 -39 -142 -104 -185 -189 l-35 -70 -3 -882 c-2 -865 -2 -884 18
-937 31 -82 77 -145 143 -193 33 -24 63 -44 67 -44 4 0 19 17 33 38 13 20 39
52 57 69 l32 33 27 -40 c37 -56 118 -114 236 -170 175 -83 141 -79 688 -82
l489 -3 -5 36 c-5 35 -3 37 44 60 57 26 136 100 145 135 3 13 10 24 14 24 5 0
30 -27 56 -60 51 -66 52 -66 127 -28 86 43 163 135 194 233 19 58 20 94 17
929 -2 574 -7 872 -14 880 -5 7 -7 15 -4 19 10 10 -56 120 -99 165 -23 24 -71
57 -107 75 l-64 32 -401 5 c-293 4 -405 8 -420 17 -16 10 63 12 400 10 409 -2
421 -3 475 -24 113 -46 236 -180 254 -275 3 -18 7 -429 10 -913 3 -824 2 -884
-14 -937 -23 -71 -34 -93 -77 -145 -40 -50 -103 -95 -166 -120 l-45 -18 25
-42 c14 -24 31 -43 39 -43 8 0 41 14 74 30 71 36 160 123 192 188 l23 47 0
1021 0 1021 -47 71 c-53 80 -129 143 -207 173 -49 18 -87 19 -1024 19 -774 -1
-979 -4 -1009 -14z m579 -572 c-3 -3 -12 -4 -19 -1 -8 3 -5 6 6 6 11 1 17 -2
13 -5z m-36 -480 c287 -98 706 -157 965 -134 81 7 120 7 122 0 2 -5 9 -7 14
-4 6 4 8 3 5 -3 -3 -5 5 -38 19 -72 14 -35 32 -88 40 -120 15 -57 21 -213 12
-286 -7 -46 -68 -225 -83 -241 -5 -6 -21 -30 -35 -54 -42 -70 -61 -86 -171
-144 -136 -72 -226 -103 -352 -122 -152 -24 -266 -15 -395 31 -57 20 -120 46
-140 59 -113 72 -203 168 -238 255 -9 23 -21 38 -27 34 -6 -3 -7 -1 -3 5 3 6
-3 39 -15 74 -15 43 -23 98 -27 176 -7 154 14 254 79 382 49 96 120 190 143
190 7 0 46 -11 87 -26z"/>
<path d="M788 1341 c-70 -62 -24 -171 73 -171 29 0 47 7 64 24 97 97 -35 238
-137 147z"/>
<path d="M1359 1261 c-41 -41 -41 -98 0 -143 25 -28 36 -33 76 -33 40 0 51 5
76 33 33 37 37 77 14 122 -19 37 -43 50 -95 50 -33 0 -48 -6 -71 -29z"/>
<path d="M1119 1026 c-3 -3 -80 -6 -172 -7 -105 -1 -164 -5 -161 -11 4 -6 -3
-5 -14 1 -24 13 -35 14 -28 3 2 -4 -4 -8 -15 -8 -10 0 -19 4 -19 9 0 5 -8 3
-17 -4 -15 -12 -16 -12 -8 1 6 12 5 13 -6 2 -20 -19 2 -34 116 -76 137 -50
200 -66 268 -66 96 0 147 40 147 114 0 22 -3 36 -7 33 -3 -4 -12 -2 -20 5 -11
9 -12 7 -7 -8 7 -18 7 -18 -15 0 -16 15 -20 16 -16 5 4 -10 0 -16 -9 -16 -8 0
-12 6 -9 14 5 13 1 17 -8 9z"/>
<path d="M752 859 c-35 -13 -48 -53 -29 -83 22 -33 52 -41 82 -22 32 21 40 52
21 80 -17 28 -43 36 -74 25z"/>
<path d="M1441 799 c-25 -27 -26 -47 -5 -77 24 -35 84 -28 103 12 12 25 11 31
-6 55 -26 34 -65 39 -92 10z"/>
<path d="M893 720 c-44 -18 -41 -94 4 -111 39 -15 83 14 83 57 0 43 -45 71
-87 54z"/>
<path d="M1277 692 c-23 -25 -21 -58 3 -82 53 -53 126 13 90 81 -14 25 -71 26
-93 1z"/>
<path d="M1067 662 c-21 -23 -22 -51 -1 -80 19 -28 67 -29 94 -2 24 24 25 48
4 78 -19 28 -74 30 -97 4z"/>
</g>
</svg>
